# xmcd CD database file
#
# Track frame offsets:
#	150
#	15572
#	31381
#	45274
#	81730
#	122377
#	142223
#	167355
#	187990
#	200477
#	216884
#	233159
#	258795
#	271192
#	302228
#
# Disc length: 4574 seconds
#
# Revision: 1
# Processed by: cddbd v1.5.2PL0 Copyright (c) Steve Scherf et al.
# Submitted via: CDex 1.70beta2
#
DISCID=c711dc0f
DTITLE=Albie Donnelly's Supercharge - Live and Loaded
DYEAR=2001
DGENRE=Blues
TTITLE0=Gangster of Love
TTITLE1=Choo Choo Ch'boogie
TTITLE2=Natrual Ball
TTITLE3=Personal Manager
TTITLE4=Commin' Home
TTITLE5=Save Your Love for Me
TTITLE6=Breakin' up Someone's Home
TTITLE7=Don't Worry 'bout a Thing
TTITLE8=Mellow Saxophone
TTITLE9=Won't be your Fool, Anymore
TTITLE10=Boogie Woogie King
TTITLE11=Harlem Nocturne
TTITLE12=Rocket 88
TTITLE13=Happy Birthday Blues
TTITLE14=Hoochie Coochie Man
EXTD=YEAR: 2001
EXTT0=
EXTT1=
EXTT2=
EXTT3=
EXTT4=
EXTT5=
EXTT6=
EXTT7=
EXTT8=
EXTT9=
EXTT10=
EXTT11=
EXTT12=
EXTT13=
EXTT14=
PLAYORDER=
